<svg width="354" height="139" viewBox="0 0 354 139" fill="none" xmlns="http://www.w3.org/2000/svg">
<path d="M17.7599 138.737C12.2273 138.094 7.85259 136.164 4.63592 132.947C1.54792 129.73 0.00392236 125.677 0.00392236 120.788C0.00392236 117.057 0.904589 113.197 2.70592 109.208L46.9029 8.655C49.3476 2.99366 53.5936 0.16299 59.6409 0.16299C65.5596 0.16299 69.7413 2.99366 72.1859 8.655L116.383 109.208C118.184 113.454 119.085 117.314 119.085 120.788C119.085 125.677 117.477 129.73 114.26 132.947C111.172 136.164 106.797 138.094 101.136 138.737L84.9239 102.067H34.1649L17.7599 138.737ZM77.0109 80.065L55.7809 27.183L53.4649 28.148L58.0969 40.114L41.8849 80.065H77.0109ZM169.527 138.737C158.848 138.737 150.742 135.713 145.209 129.666C139.805 123.49 137.103 115.706 137.103 106.313V14.831C137.103 9.55566 139.033 5.82433 142.893 3.63699C146.882 1.32099 152.994 0.16299 161.228 0.16299V105.348C161.228 109.723 162.193 112.939 164.123 114.998C166.053 116.928 169.141 117.893 173.387 117.893C178.148 117.893 182.909 116.671 187.669 114.226C188.956 115.384 189.921 116.864 190.564 118.665C191.336 120.338 191.722 122.075 191.722 123.876C191.722 127.736 189.792 131.21 185.932 134.298C182.072 137.257 176.604 138.737 169.527 138.737ZM235.117 138.737C224.438 138.737 216.332 135.713 210.799 129.666C205.395 123.49 202.693 115.706 202.693 106.313V14.831C202.693 9.55566 204.623 5.82433 208.483 3.63699C212.472 1.32099 218.583 0.16299 226.818 0.16299V105.348C226.818 109.723 227.783 112.939 229.713 114.998C231.643 116.928 234.731 117.893 238.977 117.893C243.738 117.893 248.498 116.671 253.259 114.226C254.546 115.384 255.511 116.864 256.154 118.665C256.926 120.338 257.312 122.075 257.312 123.876C257.312 127.736 255.382 131.21 251.522 134.298C247.662 137.257 242.194 138.737 235.117 138.737ZM309.392 138.737C301.029 138.737 293.437 137.257 286.618 134.298C279.927 131.21 274.652 126.964 270.792 121.56C266.932 116.156 265.002 110.044 265.002 103.225V76.012C265.002 69.064 266.868 62.7593 270.599 57.098C274.459 51.4367 279.734 46.9977 286.425 43.781C293.116 40.4357 300.771 38.763 309.392 38.763C318.013 38.763 325.668 40.4357 332.359 43.781C339.178 46.9977 344.454 51.4367 348.185 57.098C352.045 62.7593 353.975 69.064 353.975 76.012V103.225C353.975 110.044 351.981 116.156 347.992 121.56C344.132 126.964 338.792 131.21 331.973 134.298C325.282 137.257 317.755 138.737 309.392 138.737ZM309.392 118.086C315.825 118.086 320.843 116.606 324.446 113.647C328.177 110.688 330.043 106.699 330.043 101.681V77.17C330.043 71.8947 328.177 67.6487 324.446 64.432C320.843 61.0867 315.825 59.414 309.392 59.414C303.087 59.414 298.069 61.0867 294.338 64.432C290.607 67.6487 288.741 71.8947 288.741 77.17V101.681C288.741 106.699 290.607 110.688 294.338 113.647C298.069 116.606 303.087 118.086 309.392 118.086Z" fill="#525252"/>
</svg>
